<?xml version="1.0" standalone="no"?>
<!DOCTYPE svg PUBLIC "-//W3C//DTD SVG 20010904//EN"
 "http://www.w3.org/TR/2001/REC-SVG-20010904/DTD/svg10.dtd">
<svg version="1.0" xmlns="http://www.w3.org/2000/svg"
 width="500.000000pt" height="500.000000pt" viewBox="0 0 500.000000 500.000000"
 preserveAspectRatio="xMidYMid meet">

<g transform="translate(0.000000,500.000000) scale(0.100000,-0.100000)"
fill="#000000" stroke="none">
<path d="M3325 3405 c-126 -27 -199 -76 -241 -161 -34 -70 -38 -160 -10 -244
26 -75 149 -196 321 -314 375 -258 465 -345 465 -448 0 -84 -41 -152 -114
-191 -64 -34 -191 -31 -269 5 -73 35 -162 123 -209 208 -38 69 -88 205 -88
239 0 12 -5 21 -10 21 -20 0 -190 -102 -190 -114 0 -6 23 -50 52 -96 139 -226
329 -328 588 -317 164 7 265 52 335 152 45 63 58 118 53 223 -9 188 -82 266
-518 559 -239 161 -290 218 -277 314 12 91 91 143 217 143 125 0 210 -53 276
-170 30 -53 44 -87 79 -191 3 -8 32 0 94 26 50 21 94 40 97 44 11 10 -63 102
-136 170 -142 131 -329 183 -515 142z"/>
<path d="M1013 3373 c3 -10 17 -45 31 -79 14 -33 101 -333 193 -667 l167 -607
168 0 168 0 -6 38 c-4 28 17 118 89 382 52 190 100 365 107 390 8 31 14 40 20
30 4 -8 58 -201 121 -427 l112 -413 167 0 166 0 0 53 c1 35 52 239 162 637 88
322 168 602 176 622 20 48 20 48 -8 48 -20 0 -26 -6 -31 -32 -17 -92 -339
-1257 -346 -1251 -10 12 -327 1171 -336 1231 l-8 53 -167 3 c-93 2 -168 0
-168 -4 0 -4 12 -33 26 -65 15 -31 46 -127 71 -213 l44 -157 -118 -433 c-78
-284 -121 -426 -125 -415 -20 46 -330 1185 -336 1232 l-7 54 -169 4 c-159 4
-168 3 -163 -14z"/>
<path d="M1370 1712 c0 -18 32 -102 39 -102 4 0 14 19 21 43 l13 42 13 -30 c7
-16 13 -36 14 -42 0 -7 4 -13 9 -13 11 0 46 99 38 106 -3 3 -12 -14 -20 -38
l-15 -43 -11 30 c-6 17 -14 36 -16 43 -8 21 -22 5 -29 -33 -4 -19 -11 -35 -16
-35 -5 0 -12 16 -16 35 -6 31 -24 60 -24 37z"/>
<path d="M1673 1665 c0 -33 2 -45 4 -27 2 18 2 45 0 60 -2 15 -4 0 -4 -33z"/>
<path d="M1840 1665 c0 -30 5 -55 10 -55 6 0 10 17 10 38 l0 37 35 -40 34 -40
-1 60 c-1 58 -1 58 -7 16 l-6 -45 -29 42 c-16 23 -33 42 -37 42 -5 0 -9 -25
-9 -55z"/>
<path d="M2090 1665 c0 -53 1 -55 28 -55 38 0 72 26 72 55 0 29 -34 55 -72 55
-27 0 -28 -2 -28 -55z m54 39 c31 -12 38 -42 16 -64 -34 -34 -50 -26 -50 25 0
45 5 50 34 39z"/>
<path d="M2350 1700 c-11 -11 -20 -27 -20 -35 0 -20 36 -55 56 -55 34 0 54 20
54 55 0 53 -52 73 -90 35z m64 -6 c9 -8 16 -22 16 -29 0 -13 -26 -45 -36 -45
-39 0 -59 60 -26 79 23 14 28 14 46 -5z"/>
<path d="M2599 1668 c10 -29 22 -52 27 -51 5 1 13 18 18 37 5 20 12 36 16 36
4 0 11 -16 16 -36 5 -19 13 -36 18 -37 4 -1 17 21 27 48 22 58 22 55 9 55 -5
0 -12 -16 -16 -35 -9 -50 -21 -52 -34 -5 -6 22 -14 40 -19 40 -4 0 -14 -19
-21 -42 l-13 -43 -13 30 c-7 17 -13 36 -14 43 0 6 -4 12 -9 12 -6 0 -2 -24 8
-52z"/>
<path d="M3063 1713 c-24 -9 -14 -40 17 -53 48 -20 39 -34 -20 -31 -22 1 -23
0 -7 -10 10 -6 29 -8 43 -5 33 9 32 43 -2 56 -31 12 -27 36 6 32 14 -2 20 0
16 7 -7 11 -32 13 -53 4z"/>
<path d="M3283 1665 c0 -33 2 -48 4 -32 4 22 9 27 34 27 24 0 29 -4 29 -25 0
-14 5 -25 10 -25 6 0 10 25 10 55 0 30 -4 55 -10 55 -5 0 -10 -11 -10 -25 0
-21 -5 -25 -29 -25 -25 0 -30 5 -34 28 -2 15 -4 0 -4 -33z"/>
<path d="M3537 1702 c-10 -10 -17 -28 -17 -39 0 -23 29 -53 51 -53 26 0 59 31
59 55 0 25 -33 55 -61 55 -9 0 -23 -8 -32 -18z m63 -12 c22 -22 18 -45 -12
-61 -15 -8 -24 -7 -39 7 -23 21 -24 32 -2 56 21 23 28 23 53 -2z"/>
<path d="M3780 1665 c0 -30 5 -55 10 -55 6 0 10 9 10 19 0 14 8 21 28 23 20 2
28 9 30 27 4 28 -12 41 -50 41 -27 0 -28 -2 -28 -55z m59 36 c19 -12 6 -41
-19 -41 -15 0 -20 7 -20 25 0 26 14 31 39 16z"/>
</g>
</svg>
